# xmcd
#
# Track frame offsets: 
#        150
#        19702
#        42650
#        76207
#        103860
#        117812
#        132622
#        148655
#        164565
#        189405
#        204782
#        219880
#        237380
#        259495
#
# Disc length: 3634 seconds
#
# Revision: 24
# Processed by: cddbd v1.5.2PL0 Copyright (c) Steve Scherf et al.
# Submitted via: ExactAudioCopyFreeDBPlugin 1.0
#
DISCID=cb0e300e
DTITLE=Buena Vista Social Club - Buena Vista Social Club
DYEAR=1997
DGENRE=Jazz
TTITLE0=Chan Chan
TTITLE1=De Camino a La Vereda
TTITLE2=El Cuarto de Tula
TTITLE3=Pueblo Nuevo
TTITLE4=Dos Gardenias
TTITLE5=¿Y Tú Qué Has Hecho?
TTITLE6=Veinte Años
TTITLE7=El Carretero
TTITLE8=Candela
TTITLE9=Amor de Loca Juventud
TTITLE10=Orgullecida
TTITLE11=Murmullo
TTITLE12=Buena Vista Social Club
TTITLE13=La Bayamesa
EXTD=YEAR: 1997
EXTT0=Son de Cuba
EXTT1=Son de Cuba
EXTT2=Son de Cuba
EXTT3=Danz_n
EXTT4=Bolero
EXTT5=Bolero
EXTT6=Bolero
EXTT7=Guajira
EXTT8=Son de Cuba/Tumbao
EXTT9=Influencia Americana/Gospel/Blues
EXTT10=Influencia Americana/Jazz
EXTT11=Ballad
EXTT12=Danz_n
EXTT13=Criolla
PLAYORDER=
